<mxfile host="app.diagrams.net" modified="2022-10-05T12:32:05.638Z" agent="5.0 (Windows NT 10.0; Win64; x64) AppleWebKit/537.36 (KHTML, like Gecko) Chrome/105.0.0.0 Safari/537.36" etag="_W2xv8CHVbcolcjhLezg" version="20.4.0" type="github">
  <diagram id="C5RBs43oDa-KdzZeNtuy" name="Page-1">
    <mxGraphModel dx="1307" dy="613" grid="1" gridSize="10" guides="1" tooltips="1" connect="1" arrows="0" fold="1" page="1" pageScale="1" pageWidth="827" pageHeight="1169" math="0" shadow="0">
      <root>
        <mxCell id="WIyWlLk6GJQsqaUBKTNV-0" />
        <mxCell id="WIyWlLk6GJQsqaUBKTNV-1" parent="WIyWlLk6GJQsqaUBKTNV-0" />
        <mxCell id="wBFLuDKaDC1C8D6US_8e-2" style="edgeStyle=orthogonalEdgeStyle;rounded=0;orthogonalLoop=1;jettySize=auto;html=1;exitX=0.5;exitY=1;exitDx=0;exitDy=0;entryX=0.5;entryY=0;entryDx=0;entryDy=0;" edge="1" parent="WIyWlLk6GJQsqaUBKTNV-1" source="wBFLuDKaDC1C8D6US_8e-0" target="wBFLuDKaDC1C8D6US_8e-1">
          <mxGeometry relative="1" as="geometry" />
        </mxCell>
        <mxCell id="wBFLuDKaDC1C8D6US_8e-0" value="nota = read.nextFloat" style="rounded=1;whiteSpace=wrap;html=1;fillColor=#f8cecc;strokeColor=#b85450;" vertex="1" parent="WIyWlLk6GJQsqaUBKTNV-1">
          <mxGeometry x="209" y="70" width="120" height="60" as="geometry" />
        </mxCell>
        <mxCell id="wBFLuDKaDC1C8D6US_8e-4" style="edgeStyle=orthogonalEdgeStyle;rounded=0;orthogonalLoop=1;jettySize=auto;html=1;exitX=0.5;exitY=1;exitDx=0;exitDy=0;entryX=0.5;entryY=0;entryDx=0;entryDy=0;" edge="1" parent="WIyWlLk6GJQsqaUBKTNV-1" source="wBFLuDKaDC1C8D6US_8e-1" target="wBFLuDKaDC1C8D6US_8e-3">
          <mxGeometry relative="1" as="geometry" />
        </mxCell>
        <mxCell id="wBFLuDKaDC1C8D6US_8e-7" style="edgeStyle=orthogonalEdgeStyle;rounded=0;orthogonalLoop=1;jettySize=auto;html=1;exitX=0.5;exitY=1;exitDx=0;exitDy=0;entryX=0.5;entryY=0;entryDx=0;entryDy=0;" edge="1" parent="WIyWlLk6GJQsqaUBKTNV-1" source="wBFLuDKaDC1C8D6US_8e-1" target="wBFLuDKaDC1C8D6US_8e-6">
          <mxGeometry relative="1" as="geometry" />
        </mxCell>
        <mxCell id="wBFLuDKaDC1C8D6US_8e-1" value="if (nota &amp;lt; 5)" style="rhombus;whiteSpace=wrap;html=1;fillColor=#e1d5e7;strokeColor=#9673a6;" vertex="1" parent="WIyWlLk6GJQsqaUBKTNV-1">
          <mxGeometry x="229" y="160" width="80" height="80" as="geometry" />
        </mxCell>
        <mxCell id="wBFLuDKaDC1C8D6US_8e-41" style="edgeStyle=orthogonalEdgeStyle;rounded=0;orthogonalLoop=1;jettySize=auto;html=1;exitX=0.5;exitY=1;exitDx=0;exitDy=0;entryX=0;entryY=0.5;entryDx=0;entryDy=0;" edge="1" parent="WIyWlLk6GJQsqaUBKTNV-1" source="wBFLuDKaDC1C8D6US_8e-3" target="wBFLuDKaDC1C8D6US_8e-36">
          <mxGeometry relative="1" as="geometry" />
        </mxCell>
        <mxCell id="wBFLuDKaDC1C8D6US_8e-3" value="out (INSUFICIENTE)" style="rounded=1;whiteSpace=wrap;html=1;fillColor=#d5e8d4;strokeColor=#82b366;" vertex="1" parent="WIyWlLk6GJQsqaUBKTNV-1">
          <mxGeometry x="89" y="280" width="120" height="60" as="geometry" />
        </mxCell>
        <mxCell id="wBFLuDKaDC1C8D6US_8e-10" style="edgeStyle=orthogonalEdgeStyle;rounded=0;orthogonalLoop=1;jettySize=auto;html=1;exitX=0.5;exitY=1;exitDx=0;exitDy=0;" edge="1" parent="WIyWlLk6GJQsqaUBKTNV-1" source="wBFLuDKaDC1C8D6US_8e-6" target="wBFLuDKaDC1C8D6US_8e-9">
          <mxGeometry relative="1" as="geometry" />
        </mxCell>
        <mxCell id="wBFLuDKaDC1C8D6US_8e-12" style="edgeStyle=orthogonalEdgeStyle;rounded=0;orthogonalLoop=1;jettySize=auto;html=1;exitX=0.5;exitY=1;exitDx=0;exitDy=0;entryX=0.5;entryY=0;entryDx=0;entryDy=0;" edge="1" parent="WIyWlLk6GJQsqaUBKTNV-1" source="wBFLuDKaDC1C8D6US_8e-6" target="wBFLuDKaDC1C8D6US_8e-11">
          <mxGeometry relative="1" as="geometry" />
        </mxCell>
        <mxCell id="wBFLuDKaDC1C8D6US_8e-6" value="if (nota &amp;gt;= 5 &amp;amp;&amp;amp; nota &amp;lt; 6)" style="rhombus;whiteSpace=wrap;html=1;fillColor=#e1d5e7;strokeColor=#9673a6;" vertex="1" parent="WIyWlLk6GJQsqaUBKTNV-1">
          <mxGeometry x="269" y="280" width="160" height="80" as="geometry" />
        </mxCell>
        <mxCell id="wBFLuDKaDC1C8D6US_8e-43" style="edgeStyle=orthogonalEdgeStyle;rounded=0;orthogonalLoop=1;jettySize=auto;html=1;exitX=0.5;exitY=1;exitDx=0;exitDy=0;entryX=0;entryY=0.5;entryDx=0;entryDy=0;" edge="1" parent="WIyWlLk6GJQsqaUBKTNV-1" source="wBFLuDKaDC1C8D6US_8e-9" target="wBFLuDKaDC1C8D6US_8e-36">
          <mxGeometry relative="1" as="geometry" />
        </mxCell>
        <mxCell id="wBFLuDKaDC1C8D6US_8e-9" value="out (SUFICIENTE)" style="rounded=1;whiteSpace=wrap;html=1;fillColor=#d5e8d4;strokeColor=#82b366;" vertex="1" parent="WIyWlLk6GJQsqaUBKTNV-1">
          <mxGeometry x="169" y="414" width="120" height="60" as="geometry" />
        </mxCell>
        <mxCell id="wBFLuDKaDC1C8D6US_8e-14" style="edgeStyle=orthogonalEdgeStyle;rounded=0;orthogonalLoop=1;jettySize=auto;html=1;exitX=0.5;exitY=1;exitDx=0;exitDy=0;entryX=0.5;entryY=0;entryDx=0;entryDy=0;" edge="1" parent="WIyWlLk6GJQsqaUBKTNV-1" source="wBFLuDKaDC1C8D6US_8e-11" target="wBFLuDKaDC1C8D6US_8e-13">
          <mxGeometry relative="1" as="geometry" />
        </mxCell>
        <mxCell id="wBFLuDKaDC1C8D6US_8e-16" style="edgeStyle=orthogonalEdgeStyle;rounded=0;orthogonalLoop=1;jettySize=auto;html=1;exitX=0.5;exitY=1;exitDx=0;exitDy=0;entryX=0.5;entryY=0;entryDx=0;entryDy=0;" edge="1" parent="WIyWlLk6GJQsqaUBKTNV-1" source="wBFLuDKaDC1C8D6US_8e-11" target="wBFLuDKaDC1C8D6US_8e-15">
          <mxGeometry relative="1" as="geometry" />
        </mxCell>
        <mxCell id="wBFLuDKaDC1C8D6US_8e-11" value="if (nota &amp;gt;= 6 &amp;amp;&amp;amp; nota &amp;lt; 7)" style="rhombus;whiteSpace=wrap;html=1;fillColor=#e1d5e7;strokeColor=#9673a6;" vertex="1" parent="WIyWlLk6GJQsqaUBKTNV-1">
          <mxGeometry x="349" y="414" width="160" height="80" as="geometry" />
        </mxCell>
        <mxCell id="wBFLuDKaDC1C8D6US_8e-45" style="edgeStyle=orthogonalEdgeStyle;rounded=0;orthogonalLoop=1;jettySize=auto;html=1;exitX=0.5;exitY=1;exitDx=0;exitDy=0;entryX=0;entryY=0.5;entryDx=0;entryDy=0;" edge="1" parent="WIyWlLk6GJQsqaUBKTNV-1" source="wBFLuDKaDC1C8D6US_8e-13" target="wBFLuDKaDC1C8D6US_8e-36">
          <mxGeometry relative="1" as="geometry" />
        </mxCell>
        <mxCell id="wBFLuDKaDC1C8D6US_8e-13" value="out (BIEN)" style="rounded=1;whiteSpace=wrap;html=1;fillColor=#d5e8d4;strokeColor=#82b366;" vertex="1" parent="WIyWlLk6GJQsqaUBKTNV-1">
          <mxGeometry x="259" y="540" width="120" height="60" as="geometry" />
        </mxCell>
        <mxCell id="wBFLuDKaDC1C8D6US_8e-18" style="edgeStyle=orthogonalEdgeStyle;rounded=0;orthogonalLoop=1;jettySize=auto;html=1;exitX=0.5;exitY=1;exitDx=0;exitDy=0;" edge="1" parent="WIyWlLk6GJQsqaUBKTNV-1" source="wBFLuDKaDC1C8D6US_8e-15" target="wBFLuDKaDC1C8D6US_8e-17">
          <mxGeometry relative="1" as="geometry" />
        </mxCell>
        <mxCell id="wBFLuDKaDC1C8D6US_8e-20" style="edgeStyle=orthogonalEdgeStyle;rounded=0;orthogonalLoop=1;jettySize=auto;html=1;exitX=0.5;exitY=1;exitDx=0;exitDy=0;entryX=0.5;entryY=0;entryDx=0;entryDy=0;" edge="1" parent="WIyWlLk6GJQsqaUBKTNV-1" source="wBFLuDKaDC1C8D6US_8e-15" target="wBFLuDKaDC1C8D6US_8e-19">
          <mxGeometry relative="1" as="geometry" />
        </mxCell>
        <mxCell id="wBFLuDKaDC1C8D6US_8e-15" value="if (nota &amp;gt;= 7 &amp;amp;&amp;amp; nota &amp;lt; 9)" style="rhombus;whiteSpace=wrap;html=1;fillColor=#e1d5e7;strokeColor=#9673a6;" vertex="1" parent="WIyWlLk6GJQsqaUBKTNV-1">
          <mxGeometry x="419" y="540" width="160" height="80" as="geometry" />
        </mxCell>
        <mxCell id="wBFLuDKaDC1C8D6US_8e-37" style="edgeStyle=orthogonalEdgeStyle;rounded=0;orthogonalLoop=1;jettySize=auto;html=1;exitX=0.5;exitY=1;exitDx=0;exitDy=0;entryX=0;entryY=0.5;entryDx=0;entryDy=0;" edge="1" parent="WIyWlLk6GJQsqaUBKTNV-1" source="wBFLuDKaDC1C8D6US_8e-17" target="wBFLuDKaDC1C8D6US_8e-36">
          <mxGeometry relative="1" as="geometry" />
        </mxCell>
        <mxCell id="wBFLuDKaDC1C8D6US_8e-17" value="out (NOTABLE)" style="rounded=1;whiteSpace=wrap;html=1;fillColor=#d5e8d4;strokeColor=#82b366;" vertex="1" parent="WIyWlLk6GJQsqaUBKTNV-1">
          <mxGeometry x="329" y="660" width="120" height="60" as="geometry" />
        </mxCell>
        <mxCell id="wBFLuDKaDC1C8D6US_8e-22" style="edgeStyle=orthogonalEdgeStyle;rounded=0;orthogonalLoop=1;jettySize=auto;html=1;exitX=0.5;exitY=1;exitDx=0;exitDy=0;entryX=0.5;entryY=0;entryDx=0;entryDy=0;" edge="1" parent="WIyWlLk6GJQsqaUBKTNV-1" source="wBFLuDKaDC1C8D6US_8e-19" target="wBFLuDKaDC1C8D6US_8e-21">
          <mxGeometry relative="1" as="geometry" />
        </mxCell>
        <mxCell id="wBFLuDKaDC1C8D6US_8e-24" style="edgeStyle=orthogonalEdgeStyle;rounded=0;orthogonalLoop=1;jettySize=auto;html=1;exitX=0.5;exitY=1;exitDx=0;exitDy=0;entryX=0.5;entryY=0;entryDx=0;entryDy=0;" edge="1" parent="WIyWlLk6GJQsqaUBKTNV-1" source="wBFLuDKaDC1C8D6US_8e-19" target="wBFLuDKaDC1C8D6US_8e-23">
          <mxGeometry relative="1" as="geometry" />
        </mxCell>
        <mxCell id="wBFLuDKaDC1C8D6US_8e-19" value="if (nota &amp;gt;= 9 &amp;amp;&amp;amp; nota &amp;lt;= 10)" style="rhombus;whiteSpace=wrap;html=1;fillColor=#e1d5e7;strokeColor=#9673a6;" vertex="1" parent="WIyWlLk6GJQsqaUBKTNV-1">
          <mxGeometry x="489" y="660" width="190" height="80" as="geometry" />
        </mxCell>
        <mxCell id="wBFLuDKaDC1C8D6US_8e-39" style="edgeStyle=orthogonalEdgeStyle;rounded=0;orthogonalLoop=1;jettySize=auto;html=1;exitX=0.5;exitY=1;exitDx=0;exitDy=0;entryX=1;entryY=0.5;entryDx=0;entryDy=0;" edge="1" parent="WIyWlLk6GJQsqaUBKTNV-1" source="wBFLuDKaDC1C8D6US_8e-21" target="wBFLuDKaDC1C8D6US_8e-36">
          <mxGeometry relative="1" as="geometry" />
        </mxCell>
        <mxCell id="wBFLuDKaDC1C8D6US_8e-21" value="out (SOBRESALIENTE)" style="rounded=1;whiteSpace=wrap;html=1;fillColor=#d5e8d4;strokeColor=#82b366;" vertex="1" parent="WIyWlLk6GJQsqaUBKTNV-1">
          <mxGeometry x="409" y="780" width="140" height="60" as="geometry" />
        </mxCell>
        <mxCell id="wBFLuDKaDC1C8D6US_8e-40" style="edgeStyle=orthogonalEdgeStyle;rounded=0;orthogonalLoop=1;jettySize=auto;html=1;exitX=0.5;exitY=1;exitDx=0;exitDy=0;entryX=1;entryY=0.5;entryDx=0;entryDy=0;" edge="1" parent="WIyWlLk6GJQsqaUBKTNV-1" source="wBFLuDKaDC1C8D6US_8e-23" target="wBFLuDKaDC1C8D6US_8e-36">
          <mxGeometry relative="1" as="geometry" />
        </mxCell>
        <mxCell id="wBFLuDKaDC1C8D6US_8e-23" value="out (Tu nota no esta comprendida entre el 0 y el 10)" style="rounded=1;whiteSpace=wrap;html=1;fillColor=#d5e8d4;strokeColor=#82b366;" vertex="1" parent="WIyWlLk6GJQsqaUBKTNV-1">
          <mxGeometry x="559" y="780" width="180" height="60" as="geometry" />
        </mxCell>
        <mxCell id="wBFLuDKaDC1C8D6US_8e-26" value="true" style="text;html=1;strokeColor=none;fillColor=none;align=center;verticalAlign=middle;whiteSpace=wrap;rounded=0;" vertex="1" parent="WIyWlLk6GJQsqaUBKTNV-1">
          <mxGeometry x="149" y="230" width="60" height="30" as="geometry" />
        </mxCell>
        <mxCell id="wBFLuDKaDC1C8D6US_8e-27" value="false" style="text;html=1;strokeColor=none;fillColor=none;align=center;verticalAlign=middle;whiteSpace=wrap;rounded=0;" vertex="1" parent="WIyWlLk6GJQsqaUBKTNV-1">
          <mxGeometry x="289" y="230" width="60" height="30" as="geometry" />
        </mxCell>
        <mxCell id="wBFLuDKaDC1C8D6US_8e-28" value="true" style="text;html=1;strokeColor=none;fillColor=none;align=center;verticalAlign=middle;whiteSpace=wrap;rounded=0;" vertex="1" parent="WIyWlLk6GJQsqaUBKTNV-1">
          <mxGeometry x="229" y="360" width="60" height="30" as="geometry" />
        </mxCell>
        <mxCell id="wBFLuDKaDC1C8D6US_8e-29" value="false" style="text;html=1;strokeColor=none;fillColor=none;align=center;verticalAlign=middle;whiteSpace=wrap;rounded=0;" vertex="1" parent="WIyWlLk6GJQsqaUBKTNV-1">
          <mxGeometry x="369" y="360" width="60" height="30" as="geometry" />
        </mxCell>
        <mxCell id="wBFLuDKaDC1C8D6US_8e-30" value="true" style="text;html=1;strokeColor=none;fillColor=none;align=center;verticalAlign=middle;whiteSpace=wrap;rounded=0;" vertex="1" parent="WIyWlLk6GJQsqaUBKTNV-1">
          <mxGeometry x="309" y="490" width="60" height="30" as="geometry" />
        </mxCell>
        <mxCell id="wBFLuDKaDC1C8D6US_8e-31" value="false" style="text;html=1;strokeColor=none;fillColor=none;align=center;verticalAlign=middle;whiteSpace=wrap;rounded=0;" vertex="1" parent="WIyWlLk6GJQsqaUBKTNV-1">
          <mxGeometry x="449" y="490" width="60" height="30" as="geometry" />
        </mxCell>
        <mxCell id="wBFLuDKaDC1C8D6US_8e-32" value="true" style="text;html=1;strokeColor=none;fillColor=none;align=center;verticalAlign=middle;whiteSpace=wrap;rounded=0;" vertex="1" parent="WIyWlLk6GJQsqaUBKTNV-1">
          <mxGeometry x="389" y="610" width="60" height="30" as="geometry" />
        </mxCell>
        <mxCell id="wBFLuDKaDC1C8D6US_8e-33" value="false" style="text;html=1;strokeColor=none;fillColor=none;align=center;verticalAlign=middle;whiteSpace=wrap;rounded=0;" vertex="1" parent="WIyWlLk6GJQsqaUBKTNV-1">
          <mxGeometry x="529" y="610" width="60" height="30" as="geometry" />
        </mxCell>
        <mxCell id="wBFLuDKaDC1C8D6US_8e-34" value="true" style="text;html=1;strokeColor=none;fillColor=none;align=center;verticalAlign=middle;whiteSpace=wrap;rounded=0;" vertex="1" parent="WIyWlLk6GJQsqaUBKTNV-1">
          <mxGeometry x="459" y="730" width="60" height="30" as="geometry" />
        </mxCell>
        <mxCell id="wBFLuDKaDC1C8D6US_8e-35" value="false" style="text;html=1;strokeColor=none;fillColor=none;align=center;verticalAlign=middle;whiteSpace=wrap;rounded=0;" vertex="1" parent="WIyWlLk6GJQsqaUBKTNV-1">
          <mxGeometry x="599" y="730" width="60" height="30" as="geometry" />
        </mxCell>
        <mxCell id="wBFLuDKaDC1C8D6US_8e-46" style="edgeStyle=orthogonalEdgeStyle;rounded=0;orthogonalLoop=1;jettySize=auto;html=1;exitX=0.5;exitY=1;exitDx=0;exitDy=0;" edge="1" parent="WIyWlLk6GJQsqaUBKTNV-1" source="wBFLuDKaDC1C8D6US_8e-36">
          <mxGeometry relative="1" as="geometry">
            <mxPoint x="439.2222222222222" y="1100" as="targetPoint" />
          </mxGeometry>
        </mxCell>
        <mxCell id="wBFLuDKaDC1C8D6US_8e-36" value="" style="ellipse;whiteSpace=wrap;html=1;aspect=fixed;fillColor=#f5f5f5;fontColor=#333333;strokeColor=#666666;" vertex="1" parent="WIyWlLk6GJQsqaUBKTNV-1">
          <mxGeometry x="429" y="1060" width="20" height="20" as="geometry" />
        </mxCell>
      </root>
    </mxGraphModel>
  </diagram>
</mxfile>
